<svg width="36" height="36" viewBox="0 0 36 36" fill="none" xmlns="http://www.w3.org/2000/svg">
<g clip-path="url(#clip0_912_10298)">
<rect width="36" height="36" rx="18" fill="white"/>
<g clip-path="url(#clip1_912_10298)">
<mask id="mask0_912_10298" style="mask-type:luminance" maskUnits="userSpaceOnUse" x="0" y="0" width="36" height="36">
<path d="M18 35.6377C27.9411 35.6377 36 27.6599 36 17.8189C36 7.97777 27.9411 0 18 0C8.05887 0 0 7.97777 0 17.8189C0 27.6599 8.05887 35.6377 18 35.6377Z" fill="white"/>
</mask>
<g mask="url(#mask0_912_10298)">
<path d="M28.4068 15.7442C26.8334 12.9186 24.245 10.892 21.1123 10.1534C16.9771 9.1703 12.221 10.1349 9.32764 13.2794C6.70482 16.1514 5.47865 20.4075 4.61845 24.2162C4.1602 26.4658 3.76451 28.8022 4.48395 31.0069C6.43581 36.7292 14.8986 35.9303 19.8596 35.9938C25.3945 35.9365 31.8398 35.2011 31.8789 28.5002C31.8601 24.6745 30.2758 19.0962 28.4224 15.7705L28.4068 15.7442Z" fill="#FF5D05"/>
<path d="M13.993 23.6356C14.0697 23.6356 14.1463 23.6542 14.2182 23.6929C14.2308 23.6991 15.5633 24.3943 17.8952 24.3943C20.2271 24.3943 21.7927 23.6883 21.8067 23.6805C22.0413 23.5722 22.3213 23.6697 22.4308 23.9019C22.5418 24.1342 22.4417 24.4098 22.2087 24.5197C22.1383 24.5522 20.4711 25.3232 17.8952 25.3232C15.3193 25.3232 13.8304 24.5414 13.7678 24.5073C13.541 24.385 13.4566 24.1017 13.5817 23.8772C13.6677 23.7223 13.8272 23.6356 13.9946 23.6356H13.993Z" fill="#231815"/>
<path d="M14.7907 11.9928L11.1951 8.32651C10.8651 7.99054 10.4428 8.06331 10.4178 8.46121L10.1472 12.7963C10.1206 13.2113 10.5444 13.6664 10.8995 13.6045L14.7657 12.9372C15.1207 12.8753 15.1348 12.3458 14.7907 11.9943V11.9928Z" fill="#FF5D05"/>
<path d="M25.8184 12.7948L25.5478 8.45965C25.5228 8.06175 25.1005 7.98898 24.7705 8.32496L21.1749 11.9912C20.8308 12.3427 20.8433 12.8722 21.1999 12.9341L25.0661 13.6014C25.4211 13.6633 25.845 13.2081 25.8184 12.7932V12.7948Z" fill="#FF5D05"/>
<path d="M13.0218 21.513C14.0886 21.513 14.9533 21.0624 14.9533 20.5066C14.9533 19.9508 14.0886 19.5003 13.0218 19.5003C11.955 19.5003 11.0903 19.9508 11.0903 20.5066C11.0903 21.0624 11.955 21.513 13.0218 21.513Z" fill="#B53C3C"/>
<path d="M22.8969 21.3922C23.9636 21.3922 24.8284 20.9417 24.8284 20.3859C24.8284 19.8301 23.9636 19.3795 22.8969 19.3795C21.8301 19.3795 20.9653 19.8301 20.9653 20.3859C20.9653 20.9417 21.8301 21.3922 22.8969 21.3922Z" fill="#B53C3C"/>
<path d="M13.1031 19.8765C14.8747 19.8765 16.3109 18.4548 16.3109 16.701C16.3109 14.9472 14.8747 13.5255 13.1031 13.5255C11.3315 13.5255 9.89539 14.9472 9.89539 16.701C9.89539 18.4548 11.3315 19.8765 13.1031 19.8765Z" fill="white"/>
<path d="M13.5207 19.0002C14.8034 19.0002 15.8432 17.9708 15.8432 16.701C15.8432 15.4312 14.8034 14.4019 13.5207 14.4019C12.238 14.4019 11.1982 15.4312 11.1982 16.701C11.1982 17.9708 12.238 19.0002 13.5207 19.0002Z" fill="#040001"/>
<path d="M22.8968 19.8765C24.6684 19.8765 26.1046 18.4548 26.1046 16.701C26.1046 14.9472 24.6684 13.5255 22.8968 13.5255C21.1252 13.5255 19.6891 14.9472 19.6891 16.701C19.6891 18.4548 21.1252 19.8765 22.8968 19.8765Z" fill="white"/>
<path d="M22.4777 19.0002C23.7604 19.0002 24.8002 17.9708 24.8002 16.701C24.8002 15.4312 23.7604 14.4019 22.4777 14.4019C21.195 14.4019 20.1552 15.4312 20.1552 16.701C20.1552 17.9708 21.195 19.0002 22.4777 19.0002Z" fill="#040001"/>
</g>
</g>
</g>
<rect x="0.5" y="0.5" width="35" height="35" rx="17.5" stroke="#E2E5E8"/>
<defs>
<clipPath id="clip0_912_10298">
<rect width="36" height="36" rx="18" fill="white"/>
</clipPath>
<clipPath id="clip1_912_10298">
<rect width="36" height="36" fill="white"/>
</clipPath>
</defs>
</svg>
