<svg width="16" height="16" viewBox="0 0 16 16" fill="none" xmlns="http://www.w3.org/2000/svg">
<g clip-path="url(#clip0_510_1973)">
<path d="M8 14.6666C7.21207 14.6666 6.43185 14.5114 5.7039 14.2099C4.97595 13.9084 4.31451 13.4664 3.75736 12.9093C3.20021 12.3521 2.75825 11.6907 2.45672 10.9627C2.15519 10.2348 2 9.45456 2 8.66663C2 7.87869 2.15519 7.09848 2.45672 6.37053C2.75825 5.64257 3.20021 4.98114 3.75736 4.42399C4.31451 3.86683 4.97595 3.42488 5.7039 3.12335C6.43185 2.82182 7.21207 2.66663 8 2.66663C9.5913 2.66663 11.1174 3.29877 12.2426 4.42399C13.3679 5.5492 14 7.07533 14 8.66663C14 10.2579 13.3679 11.784 12.2426 12.9093C11.1174 14.0345 9.5913 14.6666 8 14.6666ZM8 13.3333C8.61284 13.3333 9.21967 13.2126 9.78586 12.9781C10.352 12.7435 10.8665 12.3998 11.2998 11.9665C11.7332 11.5331 12.0769 11.0187 12.3114 10.4525C12.546 9.8863 12.6667 9.27946 12.6667 8.66663C12.6667 8.05379 12.546 7.44696 12.3114 6.88077C12.0769 6.31458 11.7332 5.80014 11.2998 5.36679C10.8665 4.93345 10.352 4.58971 9.78586 4.35519C9.21967 4.12067 8.61284 3.99996 8 3.99996C6.76232 3.99996 5.57534 4.49163 4.70017 5.36679C3.825 6.24196 3.33333 7.42895 3.33333 8.66663C3.33333 9.9043 3.825 11.0913 4.70017 11.9665C5.57534 12.8416 6.76232 13.3333 8 13.3333ZM8.66667 7.99996H10C10.3682 7.99996 10.6667 8.29844 10.6667 8.66663V8.66663C10.6667 9.03482 10.3682 9.33329 10 9.33329H7.83333C7.55719 9.33329 7.33333 9.10944 7.33333 8.83329V6.66663C7.33333 6.29844 7.63181 5.99996 8 5.99996V5.99996C8.36819 5.99996 8.66667 6.29844 8.66667 6.66663V7.99996Z" fill="#B5B9BD"/>
</g>
<defs>
<clipPath id="clip0_510_1973">
<rect width="16" height="16" fill="white"/>
</clipPath>
</defs>
</svg>
