<svg width="350" height="52" viewBox="0 0 350 52" fill="none" xmlns="http://www.w3.org/2000/svg">
<rect width="350" height="52" rx="6" fill="#FEE500"/>
<g clip-path="url(#clip0_315_1408)">
<path fill-rule="evenodd" clip-rule="evenodd" d="M130 17.6C125.029 17.6 121 20.7129 121 24.5523C121 26.94 122.558 29.0449 124.932 30.2969L123.933 33.9445C123.845 34.2668 124.213 34.5237 124.496 34.3369L128.873 31.4482C129.243 31.4838 129.618 31.5046 130 31.5046C134.97 31.5046 139 28.3918 139 24.5523C139 20.7129 134.97 17.6 130 17.6Z" fill="black"/>
</g>
<path d="M154.215 19.715C154.2 24.29 152.115 27.35 148.29 29.36L147.3 28.25C149.235 27.365 150.855 25.94 151.77 24.095L147.855 24.515L147.615 23.18L152.28 22.835C152.445 22.235 152.565 21.62 152.61 20.96H148.29V19.715H154.215ZM157.83 18.32V23.54H159.9V24.815H157.83V31.685H156.285V18.32H157.83ZM167.194 19.715C167.179 24.29 165.094 27.35 161.269 29.36L160.279 28.25C162.214 27.365 163.834 25.94 164.749 24.095L160.834 24.515L160.594 23.18L165.259 22.835C165.424 22.235 165.544 21.62 165.589 20.96H161.269V19.715H167.194ZM170.809 18.32V23.54H172.879V24.815H170.809V31.685H169.264V18.32H170.809ZM185.482 29.975H173.407V28.745H178.657V26.465C176.182 26.225 174.607 24.815 174.607 22.82C174.607 20.615 176.542 19.145 179.437 19.145C182.377 19.145 184.297 20.615 184.297 22.82C184.297 24.83 182.692 26.24 180.187 26.48V28.745H185.482V29.975ZM182.752 22.835C182.752 21.41 181.447 20.405 179.437 20.405C177.472 20.405 176.152 21.41 176.152 22.835C176.152 24.245 177.472 25.205 179.437 25.205C181.432 25.205 182.752 24.245 182.752 22.835ZM201.231 26.525H197.106V28.76H202.401V29.99H190.326V28.76H195.576V26.525H191.871V22.205H199.311V20.48H191.826V19.25H200.841V23.45H193.416V25.28H201.231V26.525ZM215.379 29.735H203.304V28.49H215.379V29.735ZM213.804 19.76C213.804 23.3 213.579 25.805 213.219 27.56L211.704 27.365C212.034 26.03 212.259 23.135 212.259 20.975H204.699V19.76H213.804ZM227.278 28.01H225.748V18.32H227.278V28.01ZM227.593 31.295H218.443V27.095H219.973V30.065H227.593V31.295ZM223.528 22.58C223.528 24.485 222.148 25.85 220.108 25.85C218.068 25.85 216.658 24.485 216.658 22.595C216.658 20.69 218.053 19.31 220.108 19.31C222.148 19.31 223.528 20.675 223.528 22.58ZM221.998 22.58C221.998 21.41 221.278 20.585 220.108 20.585C218.968 20.585 218.203 21.44 218.203 22.58C218.203 23.675 218.968 24.545 220.108 24.545C221.278 24.545 221.998 23.675 221.998 22.58Z" fill="black" fill-opacity="0.85"/>
<defs>
<clipPath id="clip0_315_1408">
<rect width="17.9999" height="18" fill="white" transform="translate(121 17)"/>
</clipPath>
</defs>
</svg>
