<svg width="90" height="24" viewBox="0 0 90 24" fill="none" xmlns="http://www.w3.org/2000/svg">
<g clip-path="url(#clip0_881_9484)">
<path d="M30.6276 16.9472L30.5502 21.7294C30.5245 22.2368 30.3052 22.4905 29.8281 22.4905H26.991C26.5138 22.4905 26.2688 22.2368 26.2688 21.7294L26.1915 17.0106L20.1433 17.1374C19.7049 17.1628 19.4211 16.833 19.4211 16.3763V14.3087C19.4211 13.852 19.7049 13.5476 20.1433 13.5476L36.6629 13.4968C37.1013 13.4968 37.385 13.8013 37.385 14.2579V16.0465C37.385 16.5032 37.1013 16.7823 36.6629 16.8076L30.6147 16.9345L30.6276 16.9472ZM22.6967 12.1522C21.6134 12.1776 21.0073 11.5434 21.0073 10.4144L20.8913 3.48839C20.8655 2.30869 21.5876 1.72518 22.5806 1.72518L35.0509 1.67444C35.5538 1.67444 35.8891 2.02962 35.8891 2.56239V4.50319C35.8891 5.03596 35.5538 5.39114 35.0509 5.39114L25.1985 5.51799V8.296L35.2701 8.32137C35.7731 8.32137 36.0697 8.5497 36.0697 9.00636V11.0486C36.0697 11.5307 35.8504 11.7336 35.3991 11.7463L22.7096 12.1776L22.6967 12.1522Z" fill="black"/>
<path d="M63.641 18.5835C62.5578 18.5835 62.2225 18.2029 62.1967 17.074L61.8356 3.03169C61.8098 2.52429 62.0548 2.27059 62.532 2.27059H65.1756C65.6528 2.27059 65.8462 2.52429 65.872 3.03169L65.9236 6.93866L69.586 6.91329V2.98095C69.6118 2.47355 69.8052 2.21985 70.2824 2.21985H72.9131C73.3903 2.21985 73.6353 2.47355 73.6095 2.98095L73.4418 16.9598C73.4418 18.0888 73.1065 18.444 72.0233 18.4693L63.641 18.5708V18.5835ZM69.5989 10.7695L66.0138 10.8203L66.0654 14.6004H69.6118V10.7695H69.5989Z" fill="black"/>
<path d="M58.3279 1.95348H55.8777C55.4006 1.95348 55.1813 2.21987 55.1813 2.76532V9.08244L53.8789 9.10781L53.9691 3.03171C53.9949 2.48625 53.7499 2.21987 53.2728 2.21987H50.8097C50.3325 2.21987 50.1133 2.48625 50.1133 3.03171L50.3583 21.8055C50.3583 22.3383 50.6033 22.6173 51.0805 22.6173H52.9633C53.4404 22.6173 53.6854 22.3509 53.6854 21.8055L53.8015 13.3319L55.1684 13.3065V21.8055C55.1684 22.3383 55.4135 22.6173 55.8906 22.6173H57.7734C58.2505 22.6173 58.4956 22.3509 58.4956 21.8055L59.0243 2.75264C59.0501 2.20718 58.8051 1.9408 58.3279 1.9408V1.95348Z" fill="black"/>
<path d="M48.4111 2.8795L48.0887 1.20508C48.0371 0.964068 47.7921 0.900643 47.6373 1.09092L46.1543 2.79071C45.0195 2.79071 43.8846 2.79071 42.7498 2.79071H41.9116L40.4285 1.09092C40.2738 0.900643 40.0159 0.976753 39.9772 1.20508L39.6806 2.79071H39.2421C38.8553 2.79071 38.5458 3.10783 38.5329 3.50107C38.5071 4.68077 38.5586 5.87316 38.5586 7.05286C38.5586 7.40804 38.8295 7.68711 39.1648 7.68711H40.5833C40.4156 10.2875 39.9385 12.9514 38.9713 15.7548C38.8037 16.2368 38.9713 16.6681 39.4098 16.7949L41.0733 17.3277C41.5247 17.4546 41.9116 17.2516 42.105 16.7188C43.2656 13.6237 43.9878 10.1734 44.1554 6.9387H45.5998C45.5482 10.1353 45.1226 13.6871 44.1812 16.8964C44.0394 17.4038 44.3231 17.7971 44.71 17.8732L46.5928 18.2791C47.057 18.3806 47.4181 18.1269 47.5599 17.5941C48.7206 13.5095 49.2751 9.12052 49.2751 4.79493V4.28754C49.2751 3.52644 48.9398 3.06978 48.4369 2.8795H48.4111Z" fill="black"/>
<path d="M3.27557 13.7886L15.9006 13.3573C16.3133 13.2812 16.4809 12.9514 16.4035 12.4694V10.8838C16.3261 10.4271 16.1198 10.3256 15.604 10.3764L5.6613 10.351V9.14591L15.0495 9.09517C15.5266 9.09517 15.849 8.84147 15.849 8.33407V6.6977C15.849 6.29178 15.604 5.9366 15.1784 5.9366L5.6613 5.98734V4.90912H15.4105C15.9135 4.90912 16.2488 4.55394 16.2488 4.02117V2.35944C16.2488 1.82667 15.9135 1.47149 15.4105 1.47149H12.8572L12.6121 0.17762C12.5735 -0.0380246 12.3542 -0.0887646 12.2124 0.0761403L11.0002 1.47149H6.96378L5.75157 0.10151C5.60971 -0.0633946 5.39048 3.03611e-05 5.3518 0.20299L5.10678 1.47149H3.15951C2.16653 1.47149 1.44436 2.04231 1.47015 3.2347L1.58621 12.0508C1.58621 13.1797 2.19232 13.7886 3.27557 13.7886Z" fill="black"/>
<path d="M17.2417 14.9048L0.722167 14.9556C0.283708 14.9556 0 15.26 0 15.7167V17.6575C0 18.1141 0.283708 18.4313 0.722167 18.4186L6.77031 18.2917L6.84769 21.8689C6.84769 22.3763 7.09271 22.63 7.56985 22.63H10.4069C10.8841 22.63 11.1033 22.3763 11.1291 21.8689L11.1807 18.2156L17.2546 18.0888C17.6931 18.0634 17.9768 17.7843 17.9768 17.3277V15.6659C17.9768 15.2093 17.6931 14.9048 17.2546 14.9048H17.2417Z" fill="black"/>
<path d="M80.7923 6.55814C80.9599 6.46935 80.9342 6.17759 80.7407 6.05074L79.6833 5.3277C79.7348 4.78224 79.7864 4.2241 79.838 3.69133C79.838 3.60254 79.838 3.53911 79.838 3.45032L80.4312 2.60042C80.5602 2.41015 80.4312 2.1945 80.1991 2.21987L79.5801 2.27061C79.1674 1.42072 78.355 0.976746 77.5168 0.976746C77.0138 0.976746 76.5238 1.14165 76.1111 1.44609L74.8731 1.20508C74.6281 1.15434 74.4862 1.3573 74.6023 1.57294L75.2729 2.82875C75.2213 3.09514 75.1826 3.37421 75.1955 3.69133C75.2342 4.03383 75.26 4.40169 75.2987 4.74419L74.1381 5.18816C73.9188 5.26427 73.8286 5.54334 73.9704 5.67019L75.4921 7.07823C75.4921 7.07823 75.5179 7.07823 75.5308 7.09091C75.5953 7.83933 75.6598 8.60042 75.7113 9.36152L75.015 9.62791C74.7957 9.70402 74.7055 9.98309 74.8473 10.1099L75.8403 11.0233C75.9048 11.8224 75.9564 12.6216 76.0079 13.408L74.9247 13.37C74.7055 13.37 74.6023 13.5603 74.7313 13.7378L76.1498 15.5899C76.1756 15.945 76.2014 16.3256 76.2272 16.6808C76.3174 18.1142 76.4593 19.5603 76.2272 21.0063C76.1111 21.7548 76.7817 22.592 77.5168 22.592C78.2518 22.592 78.9224 21.7548 78.8063 21.0063C78.5742 19.5603 78.7161 18.1142 78.8063 16.6808C78.845 16.1734 78.8708 15.6406 78.9095 15.1078C78.9224 15.0951 78.9482 15.0825 78.9482 15.0571L80.1604 13.0021C80.2765 12.8118 80.1475 12.6343 79.9283 12.6596L79.0643 12.7865C79.1287 11.9112 79.1932 11.0233 79.2577 10.1353L79.7091 9.86892C79.9025 9.75476 79.8767 9.53911 79.6704 9.463L79.3222 9.33615C79.3738 8.63848 79.4382 7.9408 79.4898 7.25582L80.7794 6.54546L80.7923 6.55814Z" fill="black"/>
</g>
<defs>
<clipPath id="clip0_881_9484">
<rect width="90" height="24" fill="white"/>
</clipPath>
</defs>
</svg>
