<svg width="24" height="24" viewBox="0 0 24 24" fill="none" xmlns="http://www.w3.org/2000/svg">
<path fill-rule="evenodd" clip-rule="evenodd" d="M4 12C4 11.4477 4.39797 11 4.88889 11H19.1111C19.602 11 20 11.4477 20 12C20 12.5523 19.602 13 19.1111 13H4.88889C4.39797 13 4 12.5523 4 12Z" fill="#FF5D05"/>
<path fill-rule="evenodd" clip-rule="evenodd" d="M12 4C12.5523 4 13 4.39797 13 4.88889L13 19.1111C13 19.602 12.5523 20 12 20C11.4477 20 11 19.602 11 19.1111L11 4.88889C11 4.39797 11.4477 4 12 4Z" fill="#FF5D05"/>
</svg>
