<svg width="16" height="16" viewBox="0 0 16 16" fill="none" xmlns="http://www.w3.org/2000/svg">
<path fill-rule="evenodd" clip-rule="evenodd" d="M1.5 4.33333C1.5 3.5049 2.17157 2.83333 3 2.83333H13C13.8284 2.83333 14.5 3.5049 14.5 4.33333V13C14.5 13.8284 13.8284 14.5 13 14.5H3C2.17157 14.5 1.5 13.8284 1.5 13V4.33333ZM3 3.83333C2.72386 3.83333 2.5 4.05719 2.5 4.33333V13C2.5 13.2761 2.72386 13.5 3 13.5H13C13.2761 13.5 13.5 13.2761 13.5 13V4.33333C13.5 4.05719 13.2761 3.83333 13 3.83333H3Z" fill="#8E9398"/>
<path fill-rule="evenodd" clip-rule="evenodd" d="M4.83334 6.66667C4.83334 6.39053 5.0572 6.16667 5.33334 6.16667L10.6667 6.16667C10.9428 6.16667 11.1667 6.39053 11.1667 6.66667C11.1667 6.94281 10.9428 7.16667 10.6667 7.16667L5.33334 7.16667C5.0572 7.16667 4.83334 6.94281 4.83334 6.66667Z" fill="#8E9398"/>
<path fill-rule="evenodd" clip-rule="evenodd" d="M5.33334 5.16667C5.0572 5.16667 4.83334 4.94281 4.83334 4.66667L4.83334 2C4.83334 1.72386 5.0572 1.5 5.33334 1.5C5.60949 1.5 5.83334 1.72386 5.83334 2L5.83334 4.66667C5.83334 4.94281 5.60949 5.16667 5.33334 5.16667Z" fill="#8E9398"/>
<path fill-rule="evenodd" clip-rule="evenodd" d="M10.6667 5.16667C10.3905 5.16667 10.1667 4.94281 10.1667 4.66667L10.1667 2C10.1667 1.72386 10.3905 1.5 10.6667 1.5C10.9428 1.5 11.1667 1.72386 11.1667 2L11.1667 4.66667C11.1667 4.94281 10.9428 5.16667 10.6667 5.16667Z" fill="#8E9398"/>
</svg>
