<svg width="24" height="24" viewBox="0 0 24 24" fill="none" xmlns="http://www.w3.org/2000/svg">
<path fill-rule="evenodd" clip-rule="evenodd" d="M6.34318 17.6569C5.95266 17.2664 5.91748 16.6684 6.26462 16.3212L16.3212 6.26462C16.6684 5.91748 17.2664 5.95266 17.6569 6.34318C18.0474 6.73371 18.0826 7.3317 17.7355 7.67883L7.67883 17.7355C7.3317 18.0826 6.73371 18.0474 6.34318 17.6569Z" fill="#EB003B"/>
<path fill-rule="evenodd" clip-rule="evenodd" d="M6.34318 6.34318C6.73371 5.95266 7.3317 5.91748 7.67883 6.26462L17.7355 16.3212C18.0826 16.6684 18.0474 17.2664 17.6569 17.6569C17.2664 18.0474 16.6684 18.0826 16.3212 17.7355L6.26462 7.67883C5.91748 7.3317 5.95266 6.73371 6.34318 6.34318Z" fill="#EB003B"/>
</svg>
