<svg width="20" height="20" viewBox="0 0 20 20" fill="none" xmlns="http://www.w3.org/2000/svg">
<path fill-rule="evenodd" clip-rule="evenodd" d="M9.32784 10.4243C9.04859 10.2214 8.65773 10.2833 8.45484 10.5625L3.55663 17.3043C3.35374 17.5836 3.41564 17.9744 3.6949 18.1773C3.97415 18.3802 4.36501 18.3183 4.5679 18.0391L9.46611 11.2973C9.669 11.018 9.60709 10.6271 9.32784 10.4243Z" fill="#505458"/>
<path fill-rule="evenodd" clip-rule="evenodd" d="M8.96996 6.17633C8.07665 5.52666 6.82582 5.72417 6.17615 6.61748C5.52648 7.51079 5.72399 8.76163 6.6173 9.41129L11.4698 12.9403C12.3631 13.5899 13.6139 13.3924 14.2636 12.4991C14.9132 11.6058 14.7157 10.355 13.8224 9.70531L8.96996 6.17633ZM8.23476 7.18726C7.89976 6.94363 7.4307 7.0177 7.18708 7.35269C6.94345 7.68768 7.01752 8.15674 7.35251 8.40037L12.205 11.9294C12.54 12.173 13.009 12.0989 13.2526 11.7639C13.4963 11.4289 13.4222 10.9599 13.0872 10.7162L8.23476 7.18726Z" fill="#505458"/>
<path fill-rule="evenodd" clip-rule="evenodd" d="M15.4669 5.16996L12.8426 8.78204L9.93011 6.66602L12.5544 3.05394L15.4669 5.16996ZM16.3961 4.57152C16.7536 4.83122 16.8626 5.29055 16.6396 5.59745L13.6115 9.76524C13.3885 10.0721 12.918 10.1104 12.5606 9.85071L9.00089 7.26446C8.64344 7.00476 8.53444 6.54543 8.75742 6.23853L11.7855 2.07074C12.0085 1.76383 12.479 1.72556 12.8364 1.98526L16.3961 4.57152Z" fill="#505458"/>
</svg>
