<svg width="20" height="20" viewBox="0 0 20 20" fill="none" xmlns="http://www.w3.org/2000/svg">
<path fill-rule="evenodd" clip-rule="evenodd" d="M9.66109 10.7575C9.38184 10.5546 8.99098 10.6165 8.78809 10.8958L3.88988 17.6376C3.68699 17.9168 3.74889 18.3077 4.02815 18.5106C4.3074 18.7135 4.69826 18.6516 4.90115 18.3723L9.79936 11.6305C10.0023 11.3512 9.94035 10.9604 9.66109 10.7575Z" fill="#505458"/>
<path d="M14.1429 13.1381C14.6163 12.4865 14.4718 11.5745 13.8202 11.1011L8.08971 6.93759C7.43811 6.46417 6.52612 6.60862 6.0527 7.26022C5.57929 7.91181 5.72374 8.82381 6.37533 9.29722L12.1059 13.4607C12.7575 13.9341 13.6695 13.7897 14.1429 13.1381Z" fill="#505458"/>
<path d="M16.8436 6.04918C17.1141 5.67684 17.0315 5.1557 16.6592 4.88518L12.9512 2.19116C12.5789 1.92064 12.0577 2.00318 11.7872 2.37552L8.11354 7.43188C7.84302 7.80422 7.92556 8.32536 8.2979 8.59588L12.0059 11.2899C12.3782 11.5604 12.8994 11.4779 13.1699 11.1055L16.8436 6.04918Z" fill="#505458"/>
<path fill-rule="evenodd" clip-rule="evenodd" d="M15.5874 5.65154L12.4035 10.0337L9.36972 7.82952L12.5536 3.44734L15.5874 5.65154ZM16.6592 4.88518C17.0315 5.1557 17.1141 5.67684 16.8436 6.04918L13.1699 11.1055C12.8994 11.4779 12.3782 11.5604 12.0059 11.2899L8.2979 8.59588C7.92556 8.32536 7.84302 7.80422 8.11354 7.43188L11.7872 2.37552C12.0577 2.00318 12.5789 1.92064 12.9512 2.19116L16.6592 4.88518Z" fill="#505458"/>
</svg>
