<svg width="16" height="16" viewBox="0 0 16 16" fill="none" xmlns="http://www.w3.org/2000/svg">
<path fill-rule="evenodd" clip-rule="evenodd" d="M4.22876 11.7712C3.96841 11.5109 3.94496 11.1122 4.17638 10.8808L10.8808 4.17639C11.1122 3.94497 11.5109 3.96842 11.7712 4.22877C12.0316 4.48912 12.055 4.88777 11.8236 5.1192L5.11919 11.8236C4.88777 12.055 4.48911 12.0316 4.22876 11.7712Z" fill="#8E9398"/>
<path fill-rule="evenodd" clip-rule="evenodd" d="M4.22876 4.22877C4.48911 3.96842 4.88777 3.94497 5.11919 4.17639L11.8236 10.8808C12.055 11.1122 12.0316 11.5109 11.7712 11.7712C11.5109 12.0316 11.1122 12.055 10.8808 11.8236L4.17638 5.1192C3.94496 4.88777 3.96841 4.48912 4.22876 4.22877Z" fill="#8E9398"/>
</svg>
