<svg width="24" height="24" viewBox="0 0 24 24" fill="none" xmlns="http://www.w3.org/2000/svg">
<path fill-rule="evenodd" clip-rule="evenodd" d="M6.34312 17.6569C5.9526 17.2663 5.91742 16.6683 6.26455 16.3212L16.3212 6.26458C16.6683 5.91744 17.2663 5.95262 17.6568 6.34314C18.0474 6.73367 18.0825 7.33166 17.7354 7.67879L7.67877 17.7354C7.33163 18.0826 6.73365 18.0474 6.34312 17.6569Z" fill="#3A3D40"/>
<path fill-rule="evenodd" clip-rule="evenodd" d="M6.34312 6.34314C6.73365 5.95262 7.33163 5.91745 7.67877 6.26458L17.7354 16.3212C18.0825 16.6683 18.0474 17.2663 17.6568 17.6569C17.2663 18.0474 16.6683 18.0826 16.3212 17.7354L6.26455 7.67879C5.91742 7.33166 5.9526 6.73367 6.34312 6.34314Z" fill="#3A3D40"/>
</svg>
